# xmcd
#
# Track frame offsets:
#	150
#	10646
#	25239
#	35049
#	45579
#	55569
#	67224
#	80803
#	90966
#	103310
#	113127
#	125428
#	133182
#	145391
#	151771
#	167533
#	180084
#	187716
#	197715
#
# Disc length: 2848 seconds
#
# Revision: 0
# Processed by: cddbd v1.5.2PL0 Copyright (c) Steve Scherf et al.
# Submitted via: EasyCDDAExtractor 4.6.9.1
#
DISCID=f40b1e13
DTITLE=Jack Defer - Pèle Mèle
DYEAR=1900
DGENRE=Slow Rock
TTITLE0=Jack Defer - Quand Une Fille Me Plait 
TTITLE1=Jack Defer - The Swinging Preacher
TTITLE2=Jack Defer - Tu Dis N'importe Quoi
TTITLE3=Jack Defer - J'ai Vingt Ans Les Gars 
TTITLE4=Jack Defer - A Mal Y Pense
TTITLE5=Jack Defer - Elle Etait Si Jolie
TTITLE6=Jack Defer - Reviens Vite Et Oublie
TTITLE7=Jack Defer - Si J'avais Un Marteau
TTITLE8=Jack Defer - Lullaby Of Lily
TTITLE9=Jack Defer - Elle A Le Truc
TTITLE10=Jack Defer - Quiet Village
TTITLE11=Jack Defer - Pendant Les Vacances
TTITLE12=Jack Defer - Till
TTITLE13=Jack Defer - Je Ne Peut Pas T'Oublier
TTITLE14=Jack Defer - Sag Warum 
TTITLE15=Jack Defer - Water Melon Man
TTITLE16=Jack Defer - C'est Pas Prudent
TTITLE17=Jack Defer - Jada
TTITLE18=Jack Defer - Ballade Pour Un Adieu
EXTD=
EXTT0=
EXTT1=
EXTT2=
EXTT3=
EXTT4=
EXTT5=
EXTT6=
EXTT7=
EXTT8=
EXTT9=
EXTT10=
EXTT11=
EXTT12=
EXTT13=
EXTT14=
EXTT15=
EXTT16=
EXTT17=
EXTT18=
PLAYORDER=
